<?xml version="1.0" encoding="UTF-8"?>
<svg id="Capa_2" data-name="Capa 2" xmlns="http://www.w3.org/2000/svg" viewBox="0 0 156.04 111.51">
  <g id="Capa_1-2" data-name="Capa 1">
    <g>
      <path d="m156.04,110.03c-.2.25-.38.54-.62.76-.56.52-1.27.69-2.01.7-1.89.02-3.77.01-5.66.02-9.01,0-18.02.02-27.03.02-9.46,0-18.93-.01-28.39-.01-7.29,0-14.58,0-21.87,0-8.71,0-17.42.01-26.12.01-6.76,0-13.52-.01-20.28-.02-1.45,0-2.9,0-4.35,0-.32,0-.63-.03-.94-.08-1.34-.23-2.19-1.12-2.29-2.49-.08-1.25-.08-2.51-.08-3.76,0-11.98,0-23.96,0-35.94,0-4.37.02-8.74,0-13.11,0-.38-.14-.8-.33-1.14-2.11-3.68-4.24-7.35-6.36-11.03-3.03-5.26-6.07-10.52-9.08-15.79-.29-.51-.55-1.1-.62-1.68-.14-1.14.45-1.99,1.39-2.56,1.48-.9,3-1.74,4.5-2.61,3.13-1.82,6.25-3.65,9.39-5.46,6.26-3.61,12.52-7.22,18.77-10.83,1.29-.75,2.58-1.5,3.88-2.24.9-.52,1.85-.64,2.73,0,.44.31.81.77,1.09,1.24,1.52,2.58,2.99,5.18,4.48,7.77,2.05,3.56,4.1,7.12,6.15,10.68.09.15.2.29.37.53,0-.94,0-1.74,0-2.55,0-2.27-.05-4.54.05-6.8.17-3.82,1.65-7.09,4.42-9.73,2.08-1.98,4.58-3.19,7.39-3.65,1.36-.22,2.77-.23,4.15-.23,10.16-.02,20.31,0,30.47-.01,1.68,0,3.36-.03,5,.37,3.98.99,7.05,3.23,9.15,6.79,1.08,1.84,1.71,3.82,1.78,5.92.12,3.25.12,6.5.16,9.75,0,.3,0,.6,0,.95.2,0,.35,0,.49,0,12.39,0,24.78,0,37.17,0,1.31,0,2.37.34,3.03,1.55v84.69ZM38.83,29.15c0,.19,0,.32,0,.45,0,3.39,0,6.78,0,10.17,0,8.8,0,17.61,0,26.41,0,8.02,0,16.04,0,24.05,0,.38.11.51.48.59,2.91.61,5.63,1.7,7.97,3.58,3.63,2.91,6,6.61,6.77,11.26.06.38.22.46.56.46.97-.02,1.93-.01,2.9-.01,12,0,24,.02,35.99.02,11.17,0,22.34-.01,33.5-.01,2.69,0,5.37.01,8.06.02.66,0,.7,0,.79-.63.28-1.9.99-3.64,1.88-5.31,1.36-2.55,3.24-4.65,5.59-6.32,2.23-1.58,4.74-2.49,7.38-3.07.32-.07.4-.19.4-.51-.01-2.37,0-4.75,0-7.12,0-5.94.01-11.89.01-17.83,0-5.14,0-10.29,0-15.43,0-6.29,0-12.58,0-18.88,0-.62,0-1.23,0-1.87H38.83Zm8.22-5.36c-.09-.17-.13-.26-.18-.35-.86-1.51-1.72-3.01-2.59-4.52-1.89-3.27-3.78-6.53-5.66-9.81-.22-.38-.39-.41-.76-.2-2.19,1.28-4.39,2.54-6.58,3.8-5.41,3.12-10.81,6.24-16.22,9.37-2.85,1.65-5.68,3.31-8.53,4.96-.26.15-.28.29-.13.54,1.13,1.96,2.24,3.93,3.37,5.9,2.66,4.62,5.34,9.23,8,13.84,1.91,3.31,3.8,6.63,5.7,9.94.44.77.91,1.53,1.43,2.4,0-.22,0-.32,0-.42,0-6.75,0-13.49,0-20.24,0-4.07,0-8.14,0-12.21,0-1.81,1.19-3,2.96-3,6.19,0,12.37,0,18.56,0,.18,0,.36,0,.62,0Zm53.17-.03c.02-.07.03-.1.03-.13,0-3.6.05-7.2-.02-10.8-.07-3.57-2.79-6.71-6.3-7.29-1.18-.2-2.4-.2-3.61-.22-2.31-.03-4.62-.02-6.92,0-2.56.02-5.13-.01-7.69.13-4.37.25-7.69,4.02-7.86,8.09-.14,3.34-.05,6.68-.06,10.03,0,.06.03.11.05.19h32.38Zm-69.88,5.4c0,.92,0,1.78,0,2.64-.02,1.66-.07,3.33-.08,4.99,0,.94.08,1.87.08,2.81,0,1.6-.07,3.2-.08,4.81,0,.97.08,1.93.08,2.9,0,1.6-.07,3.2-.08,4.81,0,1,.08,1.99.08,2.99,0,1.56-.07,3.11-.08,4.67,0,1.13.07,2.26.08,3.4.01,2.36,0,4.71,0,7.07,0,2.6.01,5.2,0,7.8,0,1.66-.08,3.33-.08,4.99,0,1.6.07,3.2.08,4.81.02,1.81.01,3.62,0,5.44-.01,1.62-.06,3.23-.08,4.85,0,.7,0,1.39,0,2.09,0,1.83,0,3.65-.02,5.48,0,.31.04.44.38.44.84-.01,1.69-.01,2.54,0,.3,0,.38-.1.38-.4,0-3.24.01-6.47.01-9.71,0-6.55,0-13.1,0-19.65,0-10.15,0-20.3,0-30.45,0-5.23.02-10.47.03-15.7,0-.34,0-.68,0-1.05h-3.23Zm-8.43,35.92c-.05,0-.11,0-.16,0,0,.54,0,1.07,0,1.61,0,8.29.02,16.58.03,24.87,0,4.7-.01,9.41-.04,14.11,0,.35.08.5.45.46.3-.03.6-.01.9-.01.6,0,1.19,0,1.81,0,0-.23,0-.39,0-.56,0-2.9,0-5.81,0-8.71,0-8.7,0-17.4,0-26.09,0-.22-.04-.46-.14-.65-.38-.72-.79-1.43-1.19-2.14-.55-.97-1.11-1.93-1.66-2.9ZM62.49,23.76c.01-.07.03-.11.03-.15,0-3.08-.02-6.17.02-9.25.04-2.93.74-5.68,2.47-8.1.15-.22.29-.45.44-.67-.02-.03-.04-.07-.05-.1-.58.15-1.18.23-1.73.46-3.46,1.45-5.39,4.1-5.58,7.82-.16,3.24-.04,6.5-.04,9.75,0,.07.02.14.03.25h4.42ZM103.18,5.65c.06.12.12.23.2.35,1.5,2.33,2.16,4.91,2.2,7.65.04,3.21,0,6.41,0,9.62,0,.16.02.32.03.5h4.4c0-.09.02-.15.02-.21,0-3.19,0-6.38,0-9.57,0-1.3-.33-2.54-.91-3.71-1.23-2.48-3.21-4-5.93-4.62Zm47.88,90.5c-6.14,1.27-9.54,6.64-9.86,9.92.04.01.08.04.12.04,3.14,0,6.27,0,9.41.02.33,0,.4-.15.4-.44-.01-2.98-.01-5.95-.02-8.93,0-.19-.03-.38-.05-.6Zm-112.21-.06c-.03.16-.06.22-.06.27,0,3.11.02,6.23.02,9.34,0,.35.12.42.45.42,2.93,0,5.85,0,8.78,0,.24,0,.47,0,.74,0-.56-2.8-1.91-5.06-3.95-6.93-1.71-1.56-3.7-2.54-5.97-3.11Z"/>
      <path d="m102.29,82.07c-10.68,0-21.37,0-32.05.01-1.14,0-2.09-.33-3.03-.97-3.41-2.34-6.86-4.62-10.29-6.93-2.07-1.39-4.14-2.77-6.2-4.17-.85-.58-1.42-1.34-1.39-2.44.02-.96.47-1.67,1.23-2.2.92-.64,1.86-1.24,2.78-1.86,3.72-2.5,7.44-5,11.16-7.5,1.08-.72,2.15-1.46,3.22-2.18.63-.42,1.3-.64,2.08-.64,21.61.01,43.22,0,64.83.01,1.77,0,2.58.55,3.26,2.18.8,1.89,1.62,3.79,1.94,5.83.33,2.06.69,4.13.73,6.2.04,1.83-.32,3.66-.53,5.49-.3,2.62-1.3,5.01-2.32,7.4-.49,1.14-1.36,1.73-2.57,1.74-2.28.04-4.56.03-6.84.03-8.68,0-17.35,0-26.03,0h0Zm-29.11-5.41c.2.02.33.03.46.03,5.97,0,11.95.01,17.92,0,6.73,0,13.46-.01,20.19-.01,2.63,0,5.25.01,7.88.02.26,0,.46-.04.55-.34.52-1.61,1.09-3.2,1.32-4.89.05-.39.11-.79.16-1.21-2,0-3.92,0-5.83,0-13.68,0-27.37,0-41.05,0-.27,0-.4.06-.45.35-.26,1.52-.53,3.03-.81,4.55-.09.48-.22.96-.34,1.49Zm48.5-11.74c-.25-2.15-.83-4.13-1.55-6.08-.05-.14-.3-.29-.46-.3-.54-.04-1.09,0-1.63,0-14.74,0-29.49,0-44.23,0-.2,0-.4.03-.55.04.37,2.07.72,4.09,1.1,6.1.02.11.23.26.35.26.65.02,1.3-.01,1.95-.01,14.76,0,29.52,0,44.28,0,.24,0,.48,0,.75,0Zm4.03,11.68c.15.03.25.07.35.07,2.41,0,4.83.02,7.24,0,.14,0,.35-.17.39-.31.35-1.14.7-2.28.99-3.43.74-2.91.89-5.86.36-8.81-.31-1.73-.88-3.41-1.31-5.12-.09-.35-.24-.48-.62-.48-2.28.02-4.55,0-6.83,0-.19,0-.37.03-.58.04,1.81,6.03,1.87,12,0,18.03Zm-57.66-16.57c-.14.06-.23.09-.3.13-.9.61-1.8,1.22-2.7,1.82-.31.2-.35.44-.24.77.21.63.45,1.26.57,1.91.51,2.66.4,5.3-.57,7.85-.14.36-.06.55.24.75.86.56,1.7,1.15,2.55,1.72.13.09.26.17.45.28,1.45-5.12,1.49-10.15,0-15.23Zm-7.97,5.3c-1.17.78-2.27,1.52-3.43,2.29,1.2.8,2.29,1.53,3.46,2.3.37-1.58.44-3.04-.03-4.59Z"/>
    </g>
  </g>
</svg>